<mxfile host="Electron" modified="2024-05-03T02:47:34.326Z" agent="Mozilla/5.0 (Windows NT 10.0; Win64; x64) AppleWebKit/537.36 (KHTML, like Gecko) draw.io/24.2.5 Chrome/120.0.6099.109 Electron/28.1.0 Safari/537.36" etag="QJjTC8u_KAksBgo7mNOI" version="24.2.5" type="device">
  <diagram id="C5RBs43oDa-KdzZeNtuy" name="Page-1">
    <mxGraphModel dx="1370" dy="490" grid="1" gridSize="10" guides="1" tooltips="1" connect="1" arrows="1" fold="1" page="1" pageScale="1" pageWidth="827" pageHeight="1169" math="0" shadow="0">
      <root>
        <mxCell id="WIyWlLk6GJQsqaUBKTNV-0" />
        <mxCell id="WIyWlLk6GJQsqaUBKTNV-1" parent="WIyWlLk6GJQsqaUBKTNV-0" />
        <mxCell id="DoIzgzbQY5ypOF1-bUBq-0" value="Obra" style="swimlane;fontStyle=1;align=center;verticalAlign=top;childLayout=stackLayout;horizontal=1;startSize=26;horizontalStack=0;resizeParent=1;resizeParentMax=0;resizeLast=0;collapsible=1;marginBottom=0;whiteSpace=wrap;html=1;" vertex="1" parent="WIyWlLk6GJQsqaUBKTNV-1">
          <mxGeometry x="-800" y="40" width="160" height="188" as="geometry" />
        </mxCell>
        <mxCell id="DoIzgzbQY5ypOF1-bUBq-1" value="- titulo: String&lt;div&gt;- subtitulo: String&lt;/div&gt;&lt;div&gt;- numeroISBN: int&lt;/div&gt;&lt;div&gt;- autores: String&lt;/div&gt;&lt;div&gt;- qntdPaginas: int&lt;/div&gt;&lt;div&gt;- tema: String&lt;/div&gt;&lt;div&gt;- dataPublicado: String&lt;/div&gt;&lt;div&gt;- edicao: String&lt;/div&gt;&lt;div&gt;- resumo: String&lt;/div&gt;&lt;div&gt;- exemplares: Exemplar&lt;/div&gt;" style="text;strokeColor=none;fillColor=none;align=left;verticalAlign=top;spacingLeft=4;spacingRight=4;overflow=hidden;rotatable=0;points=[[0,0.5],[1,0.5]];portConstraint=eastwest;whiteSpace=wrap;html=1;" vertex="1" parent="DoIzgzbQY5ypOF1-bUBq-0">
          <mxGeometry y="26" width="160" height="154" as="geometry" />
        </mxCell>
        <mxCell id="DoIzgzbQY5ypOF1-bUBq-2" value="" style="line;strokeWidth=1;fillColor=none;align=left;verticalAlign=middle;spacingTop=-1;spacingLeft=3;spacingRight=3;rotatable=0;labelPosition=right;points=[];portConstraint=eastwest;strokeColor=inherit;" vertex="1" parent="DoIzgzbQY5ypOF1-bUBq-0">
          <mxGeometry y="180" width="160" height="8" as="geometry" />
        </mxCell>
        <mxCell id="DoIzgzbQY5ypOF1-bUBq-4" value="Exemplar" style="swimlane;fontStyle=1;align=center;verticalAlign=top;childLayout=stackLayout;horizontal=1;startSize=26;horizontalStack=0;resizeParent=1;resizeParentMax=0;resizeLast=0;collapsible=1;marginBottom=0;whiteSpace=wrap;html=1;" vertex="1" parent="WIyWlLk6GJQsqaUBKTNV-1">
          <mxGeometry x="-480" y="40" width="160" height="104" as="geometry" />
        </mxCell>
        <mxCell id="DoIzgzbQY5ypOF1-bUBq-5" value="- numeroSerie: int&lt;div&gt;- dataAquisicao: String&lt;/div&gt;" style="text;strokeColor=none;fillColor=none;align=left;verticalAlign=top;spacingLeft=4;spacingRight=4;overflow=hidden;rotatable=0;points=[[0,0.5],[1,0.5]];portConstraint=eastwest;whiteSpace=wrap;html=1;" vertex="1" parent="DoIzgzbQY5ypOF1-bUBq-4">
          <mxGeometry y="26" width="160" height="44" as="geometry" />
        </mxCell>
        <mxCell id="DoIzgzbQY5ypOF1-bUBq-6" value="" style="line;strokeWidth=1;fillColor=none;align=left;verticalAlign=middle;spacingTop=-1;spacingLeft=3;spacingRight=3;rotatable=0;labelPosition=right;points=[];portConstraint=eastwest;strokeColor=inherit;" vertex="1" parent="DoIzgzbQY5ypOF1-bUBq-4">
          <mxGeometry y="70" width="160" height="8" as="geometry" />
        </mxCell>
        <mxCell id="DoIzgzbQY5ypOF1-bUBq-7" value="+ controle(int): Boolean" style="text;strokeColor=none;fillColor=none;align=left;verticalAlign=top;spacingLeft=4;spacingRight=4;overflow=hidden;rotatable=0;points=[[0,0.5],[1,0.5]];portConstraint=eastwest;whiteSpace=wrap;html=1;" vertex="1" parent="DoIzgzbQY5ypOF1-bUBq-4">
          <mxGeometry y="78" width="160" height="26" as="geometry" />
        </mxCell>
        <mxCell id="DoIzgzbQY5ypOF1-bUBq-8" value="1" style="endArrow=open;html=1;endSize=12;startArrow=diamondThin;startSize=14;startFill=1;edgeStyle=orthogonalEdgeStyle;align=left;verticalAlign=bottom;rounded=0;" edge="1" parent="WIyWlLk6GJQsqaUBKTNV-1">
          <mxGeometry x="-1" y="-30" relative="1" as="geometry">
            <mxPoint x="-640" y="90" as="sourcePoint" />
            <mxPoint x="-480" y="90" as="targetPoint" />
            <mxPoint as="offset" />
          </mxGeometry>
        </mxCell>
        <mxCell id="DoIzgzbQY5ypOF1-bUBq-9" value="Usuarios" style="swimlane;fontStyle=1;align=center;verticalAlign=top;childLayout=stackLayout;horizontal=1;startSize=26;horizontalStack=0;resizeParent=1;resizeParentMax=0;resizeLast=0;collapsible=1;marginBottom=0;whiteSpace=wrap;html=1;" vertex="1" parent="WIyWlLk6GJQsqaUBKTNV-1">
          <mxGeometry x="-520" y="330" width="210" height="160" as="geometry" />
        </mxCell>
        <mxCell id="DoIzgzbQY5ypOF1-bUBq-10" value="&lt;div&gt;- registro: Cadastro&lt;/div&gt;" style="text;strokeColor=none;fillColor=none;align=left;verticalAlign=top;spacingLeft=4;spacingRight=4;overflow=hidden;rotatable=0;points=[[0,0.5],[1,0.5]];portConstraint=eastwest;whiteSpace=wrap;html=1;" vertex="1" parent="DoIzgzbQY5ypOF1-bUBq-9">
          <mxGeometry y="26" width="210" height="26" as="geometry" />
        </mxCell>
        <mxCell id="DoIzgzbQY5ypOF1-bUBq-11" value="" style="line;strokeWidth=1;fillColor=none;align=left;verticalAlign=middle;spacingTop=-1;spacingLeft=3;spacingRight=3;rotatable=0;labelPosition=right;points=[];portConstraint=eastwest;strokeColor=inherit;" vertex="1" parent="DoIzgzbQY5ypOF1-bUBq-9">
          <mxGeometry y="52" width="210" height="8" as="geometry" />
        </mxCell>
        <mxCell id="DoIzgzbQY5ypOF1-bUBq-12" value="+ reservaExemplar(String): void&lt;div&gt;+ agendaReservas(String): Boolean&lt;/div&gt;&lt;div&gt;+ alugarLivros(String): Boolean&lt;/div&gt;&lt;div&gt;+ estadoLivro(): Boolean&lt;/div&gt;&lt;div&gt;+ dataDevolucao(String): Double&lt;/div&gt;&lt;div&gt;+ devolucao(): void&lt;/div&gt;" style="text;strokeColor=none;fillColor=none;align=left;verticalAlign=top;spacingLeft=4;spacingRight=4;overflow=hidden;rotatable=0;points=[[0,0.5],[1,0.5]];portConstraint=eastwest;whiteSpace=wrap;html=1;" vertex="1" parent="DoIzgzbQY5ypOF1-bUBq-9">
          <mxGeometry y="60" width="210" height="100" as="geometry" />
        </mxCell>
        <mxCell id="DoIzgzbQY5ypOF1-bUBq-13" value="Cadastro" style="swimlane;fontStyle=1;align=center;verticalAlign=top;childLayout=stackLayout;horizontal=1;startSize=26;horizontalStack=0;resizeParent=1;resizeParentMax=0;resizeLast=0;collapsible=1;marginBottom=0;whiteSpace=wrap;html=1;" vertex="1" parent="WIyWlLk6GJQsqaUBKTNV-1">
          <mxGeometry x="-190" y="353" width="160" height="147" as="geometry" />
        </mxCell>
        <mxCell id="DoIzgzbQY5ypOF1-bUBq-14" value="- nome: String&lt;div&gt;- rua: String&lt;/div&gt;&lt;div&gt;- bairro: String&lt;/div&gt;&lt;div&gt;- cidade: String&lt;/div&gt;&lt;div&gt;- numero: int&lt;/div&gt;&lt;div&gt;- cep: String&lt;/div&gt;&lt;div&gt;- complemento: String&lt;/div&gt;" style="text;strokeColor=none;fillColor=none;align=left;verticalAlign=top;spacingLeft=4;spacingRight=4;overflow=hidden;rotatable=0;points=[[0,0.5],[1,0.5]];portConstraint=eastwest;whiteSpace=wrap;html=1;" vertex="1" parent="DoIzgzbQY5ypOF1-bUBq-13">
          <mxGeometry y="26" width="160" height="113" as="geometry" />
        </mxCell>
        <mxCell id="DoIzgzbQY5ypOF1-bUBq-15" value="" style="line;strokeWidth=1;fillColor=none;align=left;verticalAlign=middle;spacingTop=-1;spacingLeft=3;spacingRight=3;rotatable=0;labelPosition=right;points=[];portConstraint=eastwest;strokeColor=inherit;" vertex="1" parent="DoIzgzbQY5ypOF1-bUBq-13">
          <mxGeometry y="139" width="160" height="8" as="geometry" />
        </mxCell>
        <mxCell id="DoIzgzbQY5ypOF1-bUBq-17" value="1" style="endArrow=open;html=1;endSize=12;startArrow=diamondThin;startSize=14;startFill=0;edgeStyle=orthogonalEdgeStyle;align=left;verticalAlign=bottom;rounded=0;exitX=1;exitY=0.25;exitDx=0;exitDy=0;entryX=0;entryY=0.117;entryDx=0;entryDy=0;entryPerimeter=0;" edge="1" parent="WIyWlLk6GJQsqaUBKTNV-1" source="DoIzgzbQY5ypOF1-bUBq-9" target="DoIzgzbQY5ypOF1-bUBq-13">
          <mxGeometry x="-1" y="3" relative="1" as="geometry">
            <mxPoint x="-340" y="353" as="sourcePoint" />
            <mxPoint x="-180" y="354" as="targetPoint" />
          </mxGeometry>
        </mxCell>
        <mxCell id="DoIzgzbQY5ypOF1-bUBq-18" value="1..*" style="endArrow=open;html=1;endSize=12;startArrow=diamondThin;startSize=14;startFill=0;edgeStyle=orthogonalEdgeStyle;align=left;verticalAlign=bottom;rounded=0;entryX=0.5;entryY=0;entryDx=0;entryDy=0;exitX=0.4;exitY=1.125;exitDx=0;exitDy=0;exitPerimeter=0;" edge="1" parent="WIyWlLk6GJQsqaUBKTNV-1" source="DoIzgzbQY5ypOF1-bUBq-7">
          <mxGeometry x="-0.7528" y="16" relative="1" as="geometry">
            <mxPoint x="-410" y="170" as="sourcePoint" />
            <mxPoint x="-417" y="330.0000000000001" as="targetPoint" />
            <Array as="points">
              <mxPoint x="-416" y="170" />
              <mxPoint x="-417" y="170" />
            </Array>
            <mxPoint x="16" y="-16" as="offset" />
          </mxGeometry>
        </mxCell>
        <mxCell id="DoIzgzbQY5ypOF1-bUBq-19" value="Possui" style="text;html=1;align=center;verticalAlign=middle;resizable=0;points=[];autosize=1;strokeColor=none;fillColor=none;" vertex="1" parent="WIyWlLk6GJQsqaUBKTNV-1">
          <mxGeometry x="-590" y="60" width="60" height="30" as="geometry" />
        </mxCell>
        <mxCell id="DoIzgzbQY5ypOF1-bUBq-20" value="1..*" style="text;html=1;align=center;verticalAlign=middle;resizable=0;points=[];autosize=1;strokeColor=none;fillColor=none;" vertex="1" parent="WIyWlLk6GJQsqaUBKTNV-1">
          <mxGeometry x="-520" y="97" width="40" height="30" as="geometry" />
        </mxCell>
        <mxCell id="DoIzgzbQY5ypOF1-bUBq-23" value="&lt;span style=&quot;font-size: 11px; text-align: left; background-color: rgb(24, 20, 29);&quot;&gt;1..*&lt;/span&gt;" style="text;html=1;align=center;verticalAlign=middle;resizable=0;points=[];autosize=1;strokeColor=none;fillColor=none;" vertex="1" parent="WIyWlLk6GJQsqaUBKTNV-1">
          <mxGeometry x="-411" y="300" width="40" height="30" as="geometry" />
        </mxCell>
        <mxCell id="DoIzgzbQY5ypOF1-bUBq-24" value="Alugar" style="text;html=1;align=center;verticalAlign=middle;resizable=0;points=[];autosize=1;strokeColor=none;fillColor=none;" vertex="1" parent="WIyWlLk6GJQsqaUBKTNV-1">
          <mxGeometry x="-413" y="223" width="60" height="30" as="geometry" />
        </mxCell>
      </root>
    </mxGraphModel>
  </diagram>
</mxfile>
